<?xml version="1.0" encoding="utf-8"?>
<!-- Generator: Adobe Illustrator 25.4.1, SVG Export Plug-In . SVG Version: 6.00 Build 0)  -->
<svg version="1.1" id="Layer_1" xmlns="http://www.w3.org/2000/svg" xmlns:xlink="http://www.w3.org/1999/xlink" x="0px" y="0px"
	 viewBox="0 0 288.5 288.5" style="enable-background:new 0 0 288.5 288.5;" xml:space="preserve">
<style type="text/css">
	.st0{fill:#B13838;}
	.st1{fill:#FFFFFF;}
	.st2{font-family:'Noteworthy-Bold';}
	.st3{font-size:106.1054px;}
</style>
<g>
	<g>
		<path class="st0" d="M197.9,191.9c17.5,18.5,33.5,35.6,49.7,52.6c5.7,6,13.2,12.5,7.2,20.9c-4.3,6-12.1,12.2-18.9,12.8
			c-5.1,0.5-12.8-6.5-16.3-12.1c-11-17.4-21-35.6-30.6-53.8c-4.2-7.9-7.9-9.5-16.8-6.2c-31.2,11.6-62.2,9.9-91.9-5.6
			C13,165.3,7.6,73.9,70.7,31.6c37.1-24.9,76.8-26.4,115.8-4.9c34.8,19.1,52.8,49.7,52.1,89.8c-0.4,25.5-10.8,47.5-28.9,65.6
			C206.4,185.4,202.5,188.1,197.9,191.9z"/>
	</g>
	<text transform="matrix(0.8585 -0.5128 0.5128 0.8585 88.0189 194.4738)" class="st1 st2 st3">WC</text>
</g>
</svg>
